<svg width="37" height="33" viewBox="0 0 37 33" fill="none" xmlns="http://www.w3.org/2000/svg">
<path fill-rule="evenodd" clip-rule="evenodd" d="M6.53328 33C6.22216 33 5.98659 32.7189 6.04096 32.4126L7.23838 25.6667H0.500129C0.189519 25.6667 -0.045921 25.3864 0.00761897 25.0805L0.474279 22.4138C0.516149 22.1746 0.723909 22 0.966799 22H7.88008L9.82338 11H3.08513C2.77452 11 2.53908 10.7198 2.59262 10.4138L3.05928 7.7471C3.10115 7.5079 3.30891 7.3333 3.5518 7.3333H10.4651L11.6935 0.41262C11.7359 0.17391 11.9434 0 12.1858 0H14.8368C15.1479 0 15.3835 0.28107 15.3291 0.58738L14.1317 7.3333H25.1317L26.3601 0.41262C26.4025 0.17391 26.61 0 26.8525 0H29.5035C29.8146 0 30.0502 0.28107 29.9958 0.58738L28.7984 7.3333H35.5366C35.8472 7.3333 36.0827 7.6136 36.0291 7.9195L35.5625 10.5862C35.5206 10.8254 35.3128 11 35.07 11H28.1567L26.2134 22H32.9516C33.2622 22 33.4977 22.2802 33.4441 22.5862L32.9775 25.2529C32.9356 25.4921 32.7278 25.6667 32.485 25.6667H25.5717L24.3433 32.5874C24.3009 32.8261 24.0934 33 23.851 33H21.2C20.8889 33 20.6533 32.7189 20.7076 32.4126L21.9051 25.6667H10.9051L9.67658 32.5874C9.63428 32.8261 9.42678 33 9.18428 33H6.53328ZM13.4909 11L11.5475 22H22.5475L24.4909 11H13.4909Z" fill="white"/>
</svg>
